<mxfile host="Electron" modified="2023-08-07T15:23:55.727Z" agent="Mozilla/5.0 (Windows NT 10.0; Win64; x64) AppleWebKit/537.36 (KHTML, like Gecko) draw.io/21.6.5 Chrome/114.0.5735.243 Electron/25.3.1 Safari/537.36" etag="jlsEyuekA24X9NxdONY1" version="21.6.5" type="device">
  <diagram name="Page-1" id="qgaq91ySefu28saQotJ4">
    <mxGraphModel dx="880" dy="545" grid="1" gridSize="10" guides="1" tooltips="1" connect="1" arrows="1" fold="1" page="1" pageScale="1" pageWidth="1169" pageHeight="827" math="0" shadow="0">
      <root>
        <mxCell id="0" />
        <mxCell id="1" parent="0" />
        <mxCell id="KSpuIY1RyUqORheNMQ_1-33" value="" style="html=1;verticalAlign=bottom;labelBackgroundColor=none;endArrow=halfCircle;endFill=0;endSize=2;rounded=0;" edge="1" parent="1">
          <mxGeometry width="160" relative="1" as="geometry">
            <mxPoint x="480" y="140" as="sourcePoint" />
            <mxPoint x="510" y="140" as="targetPoint" />
          </mxGeometry>
        </mxCell>
        <mxCell id="KSpuIY1RyUqORheNMQ_1-35" value="Person" style="edgeLabel;html=1;align=center;verticalAlign=middle;resizable=0;points=[];" vertex="1" connectable="0" parent="KSpuIY1RyUqORheNMQ_1-33">
          <mxGeometry x="0.0222" y="-1" relative="1" as="geometry">
            <mxPoint x="11" y="-15" as="offset" />
          </mxGeometry>
        </mxCell>
        <mxCell id="KSpuIY1RyUqORheNMQ_1-32" value="" style="html=1;verticalAlign=bottom;labelBackgroundColor=none;endArrow=oval;endFill=0;endSize=8;rounded=0;" edge="1" parent="1">
          <mxGeometry width="160" relative="1" as="geometry">
            <mxPoint x="80" y="74" as="sourcePoint" />
            <mxPoint x="39.16666666666666" y="74" as="targetPoint" />
          </mxGeometry>
        </mxCell>
        <mxCell id="KSpuIY1RyUqORheNMQ_1-34" value="OrderEntry" style="edgeLabel;html=1;align=center;verticalAlign=middle;resizable=0;points=[];" vertex="1" connectable="0" parent="KSpuIY1RyUqORheNMQ_1-32">
          <mxGeometry x="0.249" relative="1" as="geometry">
            <mxPoint x="-17" y="-14" as="offset" />
          </mxGeometry>
        </mxCell>
        <mxCell id="KSpuIY1RyUqORheNMQ_1-1" value="" style="fontStyle=1;align=center;verticalAlign=top;childLayout=stackLayout;horizontal=1;horizontalStack=0;resizeParent=1;resizeParentMax=0;resizeLast=0;marginBottom=0;" vertex="1" parent="1">
          <mxGeometry x="80" width="400" height="320" as="geometry" />
        </mxCell>
        <mxCell id="KSpuIY1RyUqORheNMQ_1-2" value="«component»&lt;br&gt;&lt;b&gt;Order&lt;/b&gt;" style="html=1;align=center;spacingLeft=4;verticalAlign=middle;strokeColor=none;fillColor=none;whiteSpace=wrap;" vertex="1" parent="KSpuIY1RyUqORheNMQ_1-1">
          <mxGeometry width="400" height="40" as="geometry" />
        </mxCell>
        <mxCell id="KSpuIY1RyUqORheNMQ_1-3" value="" style="shape=module;jettyWidth=10;jettyHeight=4;" vertex="1" parent="KSpuIY1RyUqORheNMQ_1-2">
          <mxGeometry x="1" width="16" height="20" relative="1" as="geometry">
            <mxPoint x="-25" y="9" as="offset" />
          </mxGeometry>
        </mxCell>
        <mxCell id="KSpuIY1RyUqORheNMQ_1-4" value="" style="line;strokeWidth=1;fillColor=none;align=left;verticalAlign=middle;spacingTop=-1;spacingLeft=3;spacingRight=3;rotatable=0;labelPosition=right;points=[];portConstraint=eastwest;" vertex="1" parent="KSpuIY1RyUqORheNMQ_1-1">
          <mxGeometry y="40" width="400" height="8" as="geometry" />
        </mxCell>
        <mxCell id="KSpuIY1RyUqORheNMQ_1-5" value="internal structure" style="html=1;align=center;spacingLeft=4;verticalAlign=top;strokeColor=none;fillColor=none;whiteSpace=wrap;" vertex="1" parent="KSpuIY1RyUqORheNMQ_1-1">
          <mxGeometry y="48" width="400" height="182" as="geometry" />
        </mxCell>
        <mxCell id="KSpuIY1RyUqORheNMQ_1-7" value="" style="line;strokeWidth=1;fillColor=none;align=left;verticalAlign=middle;spacingTop=-1;spacingLeft=3;spacingRight=3;rotatable=0;labelPosition=right;points=[];portConstraint=eastwest;" vertex="1" parent="KSpuIY1RyUqORheNMQ_1-1">
          <mxGeometry y="230" width="400" height="8" as="geometry" />
        </mxCell>
        <mxCell id="KSpuIY1RyUqORheNMQ_1-8" value="packaged elements" style="html=1;align=center;spacingLeft=4;verticalAlign=top;strokeColor=none;fillColor=none;whiteSpace=wrap;" vertex="1" parent="KSpuIY1RyUqORheNMQ_1-1">
          <mxGeometry y="238" width="400" height="82" as="geometry" />
        </mxCell>
        <mxCell id="KSpuIY1RyUqORheNMQ_1-13" style="edgeStyle=orthogonalEdgeStyle;rounded=0;orthogonalLoop=1;jettySize=auto;html=1;exitX=0.5;exitY=1;exitDx=0;exitDy=0;entryX=0.5;entryY=0;entryDx=0;entryDy=0;endArrow=none;endFill=0;" edge="1" parent="1" source="KSpuIY1RyUqORheNMQ_1-11" target="KSpuIY1RyUqORheNMQ_1-12">
          <mxGeometry relative="1" as="geometry" />
        </mxCell>
        <mxCell id="KSpuIY1RyUqORheNMQ_1-25" style="rounded=0;orthogonalLoop=1;jettySize=auto;html=1;exitX=0;exitY=0.5;exitDx=0;exitDy=0;entryX=0.003;entryY=0.14;entryDx=0;entryDy=0;entryPerimeter=0;endArrow=none;endFill=0;" edge="1" parent="1" source="KSpuIY1RyUqORheNMQ_1-11" target="KSpuIY1RyUqORheNMQ_1-5">
          <mxGeometry relative="1" as="geometry" />
        </mxCell>
        <mxCell id="KSpuIY1RyUqORheNMQ_1-11" value=":OrderHeader" style="whiteSpace=wrap;html=1;" vertex="1" parent="1">
          <mxGeometry x="229" y="90" width="100" height="30" as="geometry" />
        </mxCell>
        <mxCell id="KSpuIY1RyUqORheNMQ_1-26" style="rounded=0;orthogonalLoop=1;jettySize=auto;html=1;exitX=0;exitY=0.5;exitDx=0;exitDy=0;entryX=0.001;entryY=0.136;entryDx=0;entryDy=0;entryPerimeter=0;endArrow=none;endFill=0;" edge="1" parent="1" source="KSpuIY1RyUqORheNMQ_1-12" target="KSpuIY1RyUqORheNMQ_1-5">
          <mxGeometry relative="1" as="geometry" />
        </mxCell>
        <mxCell id="KSpuIY1RyUqORheNMQ_1-27" style="rounded=0;orthogonalLoop=1;jettySize=auto;html=1;exitX=1;exitY=0.5;exitDx=0;exitDy=0;entryX=1;entryY=0.5;entryDx=0;entryDy=0;strokeColor=default;endArrow=none;endFill=0;" edge="1" parent="1" source="KSpuIY1RyUqORheNMQ_1-12" target="KSpuIY1RyUqORheNMQ_1-5">
          <mxGeometry relative="1" as="geometry" />
        </mxCell>
        <mxCell id="KSpuIY1RyUqORheNMQ_1-12" value=":LineItem" style="whiteSpace=wrap;html=1;" vertex="1" parent="1">
          <mxGeometry x="229" y="170" width="100" height="30" as="geometry" />
        </mxCell>
        <mxCell id="KSpuIY1RyUqORheNMQ_1-23" value="" style="group" vertex="1" connectable="0" parent="1">
          <mxGeometry x="123" y="272" width="306" height="30" as="geometry" />
        </mxCell>
        <mxCell id="KSpuIY1RyUqORheNMQ_1-14" value="&lt;b&gt;OrderHeader&lt;/b&gt;" style="whiteSpace=wrap;html=1;" vertex="1" parent="KSpuIY1RyUqORheNMQ_1-23">
          <mxGeometry width="100" height="30" as="geometry" />
        </mxCell>
        <mxCell id="KSpuIY1RyUqORheNMQ_1-15" value="&lt;b&gt;LineItem&lt;/b&gt;" style="whiteSpace=wrap;html=1;" vertex="1" parent="KSpuIY1RyUqORheNMQ_1-23">
          <mxGeometry x="206" width="100" height="30" as="geometry" />
        </mxCell>
        <mxCell id="KSpuIY1RyUqORheNMQ_1-17" style="edgeStyle=orthogonalEdgeStyle;rounded=0;orthogonalLoop=1;jettySize=auto;html=1;exitX=1;exitY=0.5;exitDx=0;exitDy=0;entryX=0;entryY=0.5;entryDx=0;entryDy=0;startArrow=diamondThin;startFill=1;startSize=12;endArrow=none;endFill=0;endSize=12;" edge="1" parent="KSpuIY1RyUqORheNMQ_1-23" source="KSpuIY1RyUqORheNMQ_1-14" target="KSpuIY1RyUqORheNMQ_1-15">
          <mxGeometry relative="1" as="geometry" />
        </mxCell>
        <mxCell id="KSpuIY1RyUqORheNMQ_1-19" value="1" style="edgeLabel;html=1;align=center;verticalAlign=middle;resizable=0;points=[];" vertex="1" connectable="0" parent="KSpuIY1RyUqORheNMQ_1-17">
          <mxGeometry x="-0.5377" y="2" relative="1" as="geometry">
            <mxPoint y="-8" as="offset" />
          </mxGeometry>
        </mxCell>
        <mxCell id="KSpuIY1RyUqORheNMQ_1-20" value="*" style="edgeLabel;html=1;align=center;verticalAlign=middle;resizable=0;points=[];" vertex="1" connectable="0" parent="KSpuIY1RyUqORheNMQ_1-17">
          <mxGeometry x="0.5472" y="1" relative="1" as="geometry">
            <mxPoint x="9" y="-8" as="offset" />
          </mxGeometry>
        </mxCell>
        <mxCell id="KSpuIY1RyUqORheNMQ_1-21" value="order" style="edgeLabel;html=1;align=center;verticalAlign=middle;resizable=0;points=[];" vertex="1" connectable="0" parent="KSpuIY1RyUqORheNMQ_1-17">
          <mxGeometry x="-0.4434" y="-1" relative="1" as="geometry">
            <mxPoint y="10" as="offset" />
          </mxGeometry>
        </mxCell>
        <mxCell id="KSpuIY1RyUqORheNMQ_1-22" value="item" style="edgeLabel;html=1;align=center;verticalAlign=middle;resizable=0;points=[];" vertex="1" connectable="0" parent="KSpuIY1RyUqORheNMQ_1-17">
          <mxGeometry x="0.6572" y="-3" relative="1" as="geometry">
            <mxPoint y="8" as="offset" />
          </mxGeometry>
        </mxCell>
        <mxCell id="KSpuIY1RyUqORheNMQ_1-29" value="" style="fontStyle=0;labelPosition=right;verticalLabelPosition=middle;align=left;verticalAlign=middle;spacingLeft=2;" vertex="1" parent="1">
          <mxGeometry x="475" y="135" width="10" height="10" as="geometry" />
        </mxCell>
        <mxCell id="KSpuIY1RyUqORheNMQ_1-31" value="" style="fontStyle=0;labelPosition=right;verticalLabelPosition=middle;align=left;verticalAlign=middle;spacingLeft=2;" vertex="1" parent="1">
          <mxGeometry x="75" y="69" width="10" height="10" as="geometry" />
        </mxCell>
        <mxCell id="KSpuIY1RyUqORheNMQ_1-36" value="&lt;div&gt;&lt;b&gt;Figure 11.48 Delegation Connectors connect externally provided Interfaces to the parts that realize or require&lt;/b&gt;&lt;/div&gt;&lt;div&gt;&lt;b&gt;them.&lt;/b&gt;&lt;/div&gt;" style="text;html=1;align=left;verticalAlign=middle;resizable=0;points=[];autosize=1;strokeColor=none;fillColor=none;" vertex="1" parent="1">
          <mxGeometry y="320" width="640" height="40" as="geometry" />
        </mxCell>
      </root>
    </mxGraphModel>
  </diagram>
</mxfile>
